<svg width="200" height="200" viewBox="0 0 24 24" fill="none" xmlns="http://www.w3.org/2000/svg">
  <rect width="24" height="24" rx="12" fill="#FFD700"/>
  <path d="M6 10C6 9.44772 6.44772 9 7 9H17C17.5523 9 18 9.44772 18 10V17C18 17.5523 17.5523 18 17 18H7C6.44772 18 6 17.5523 6 17V10Z" fill="white"/>
  <path d="M8 6C8 5.44772 8.44772 5 9 5H15C15.5523 5 16 5.44772 16 6V8H8V6Z" fill="#FFD700"/>
  <circle cx="12" cy="13" r="1.5" fill="#FFD700"/>
  <path d="M10.5 15.5C10.7761 15.5 11 15.7239 11 16C11 16.2761 10.7761 16.5 10.5 16.5H8.5C8.22386 16.5 8 16.2761 8 16C8 15.7239 8.22386 15.5 8.5 15.5H10.5Z" fill="#FFD700"/>
  <path d="M15.5 15.5C15.7761 15.5 16 15.7239 16 16C16 16.2761 15.7761 16.5 15.5 16.5H13.5C13.2239 16.5 13 16.2761 13 16C13 15.7239 13.2239 15.5 13.5 15.5H15.5Z" fill="#FFD700"/>
</svg>
